<?xml version="1.0" encoding="utf-8"?>
<!-- Generator: Adobe Illustrator 16.0.3, SVG Export Plug-In . SVG Version: 6.00 Build 0)  -->
<svg version="1.2" baseProfile="tiny" id="Ebene_1" xmlns="http://www.w3.org/2000/svg" xmlns:xlink="http://www.w3.org/1999/xlink"
	 x="0px" y="0px" width="250.057px" height="250.057px" viewBox="0 0 250.057 250.057" overflow="scroll" xml:space="preserve">
<g id="Layer_x0020_1">
	<g id="_631799120">
		<g>
			<path fill="#E3E3F8" d="M69.624,136.44c3.313-2.16,6.048-7.561,4.393-11.376C69.48,127.008,69.696,131.472,69.624,136.44z"/>
			<path fill="#E3E3F8" d="M120.888,148.824c3.6-1.152,7.056-5.184,5.111-9.36C123.192,141.408,121.392,144.072,120.888,148.824z"/>
		</g>
		<g>
			<path fill="#FDFDFD" d="M20.16,208.44c0,4.536,1.152,9.432,4.32,11.16c11.664,6.552,52.56,1.439,66.456-1.656
				c7.271-1.656,13.176-7.056,20.016-10.008c15.408-6.696,26.568-12.097,38.88-21.097c8.928-6.552,23.112-24.983,24.624-36
				l-12.168-2.735c-0.288,12.384-3.096,15.191-14.112,18.071c-7.416,2.017-21.888,2.448-29.447,1.152
				c-10.008-1.656-14.544-6.912-19.08-12.888c-8.784-11.664,1.943-19.8-11.952-20.592c-14.616,17.928-40.392,5.04-51.696,3.239
				c-4.824,6.984-16.128,52.345-15.983,62.712c6.983-2.376,11.376,0.217,17.64,2.664c22.176,8.568,2.808,16.128-6.048,13.896
				C25.56,214.92,23.688,210.96,20.16,208.44z"/>
			<path fill="#FDFDFD" d="M49.176,104.976c9,1.728,16.992,5.472,24.624,9.288c12.456,6.191,14.688,5.327,15.841,13.968
				c0.144,1.584-0.145,2.448,4.392,3.888c7.632,2.376-4.392-1.872,16.056-1.8c12.168,0.072,40.032,4.968,49.032,10.656
				c3.744,2.376,3.024,5.399,15.696,5.04c-0.145-14.904-4.104-37.152-9.937-50.832c-7.128-16.561-16.56-19.08-35.783-25.272
				c-11.232-3.6-44.208-7.56-54.433-1.224C65.088,74.664,63.288,81.792,54.36,94.32C51.768,97.992,50.832,100.8,49.176,104.976z"/>
			<path fill="#FDFDFD" d="M128.448,135.576c7.2,2.952-0.36,22.032-10.368,17.424c-3.24-9.144,4.464-14.328,6.552-18.432
				c-4.319-0.648-16.632-2.592-20.304-1.225c-4.752,1.801-5.832,11.952-3.384,16.704c11.52,22.608,62.424,17.784,57.023,0.217
				c-2.159-7.129-4.176-8.28-11.447-10.729C140.688,137.592,134.856,135.576,128.448,135.576z"/>
			<path fill="#FDFDFD" d="M37.944,133.056c5.76,5.544,18.792,6.407,27.216,6.84c1.08-11.16,2.016-19.513,10.944-18.864
				c4.392,5.976,2.088,13.032-2.521,17.568c7.849-0.072,12.384-5.977,11.232-14.544c-6.624-4.752-26.712-14.257-36.792-15.624
				C45.216,111.456,38.304,128.016,37.944,133.056z"/>
		</g>
		<path fill="#020202" d="M24.408,204.336c4.752-0.432,17.136,3.168,18.145,7.2C34.848,212.472,25.056,211.752,24.408,204.336z
			 M20.16,208.44c3.528,2.52,5.4,6.479,11.448,7.92c8.855,2.231,28.224-5.328,6.048-13.896c-6.264-2.447-10.656-5.04-17.64-2.664
			C19.872,189.432,31.176,144.072,36,137.088c11.305,1.801,37.08,14.688,51.696-3.239c13.896,0.792,3.168,8.928,11.952,20.592
			c4.536,5.976,9.072,11.231,19.08,12.888c7.56,1.296,22.031,0.864,29.447-1.152c11.017-2.88,13.824-5.688,14.112-18.071
			l12.168,2.735c-1.512,11.017-15.696,29.448-24.624,36c-12.312,9-23.472,14.4-38.88,21.097c-6.84,2.952-12.744,8.352-20.016,10.008
			c-13.896,3.096-54.792,8.208-66.456,1.656C21.312,217.872,20.16,212.976,20.16,208.44z M120.888,148.824
			c0.504-4.752,2.304-7.416,5.111-9.36C127.944,143.64,124.488,147.672,120.888,148.824z M128.448,135.576
			c6.408,0,12.24,2.016,18.072,3.96c7.271,2.448,9.288,3.6,11.447,10.729c5.4,17.567-45.504,22.392-57.023-0.217
			c-2.448-4.752-1.368-14.903,3.384-16.704c3.672-1.367,15.984,0.576,20.304,1.225c-2.088,4.104-9.792,9.288-6.552,18.432
			C128.088,157.608,135.648,138.528,128.448,135.576z M69.624,136.44c0.072-4.968-0.144-9.433,4.393-11.376
			C75.672,128.88,72.936,134.28,69.624,136.44z M37.944,133.056c0.36-5.04,7.271-21.601,10.08-24.624
			c10.08,1.367,30.168,10.872,36.792,15.624c1.151,8.567-3.384,14.472-11.232,14.544c4.608-4.536,6.912-11.593,2.521-17.568
			c-8.929-0.648-9.864,7.704-10.944,18.864C56.736,139.464,43.704,138.6,37.944,133.056z M30.744,127.296
			c-2.664-7.344-2.664-18.792,8.64-19.728l-5.76,16.056C32.112,127.08,32.112,126.288,30.744,127.296z M49.176,104.976
			c1.656-4.177,2.593-6.984,5.185-10.656c8.928-12.528,10.728-19.656,20.304-25.632c10.225-6.336,43.2-2.376,54.433,1.224
			c19.224,6.192,28.655,8.712,35.783,25.272c5.832,13.68,9.792,35.928,9.937,50.832c-12.672,0.359-11.952-2.664-15.696-5.04
			c-9-5.688-36.864-10.584-49.032-10.656c-20.447-0.072-8.424,4.176-16.056,1.8c-4.536-1.439-4.248-2.304-4.392-3.888
			c-1.152-8.641-3.385-7.776-15.841-13.968C66.168,110.448,58.176,106.704,49.176,104.976z M176.616,101.448
			c-1.368-4.536,1.152-4.248,5.544-7.344c2.521-1.8,4.536-3.672,7.632-5.4c11.592-6.479,33.192-7.56,42.408,0.145
			c3.744,3.096,9.864,9.144,8.928,17.063c-1.943,15.769-12.744,24.408-21.6,31.608c-9,7.344-23.977,14.903-39.456,9.863
			c-1.296-3.168-0.288-23.256-1.8-30.672c-1.368-6.624-0.648-7.344,3.168-11.304c11.231-11.664,35.567-20.16,49.392-10.152
			c5.832,4.32,4.176,5.977,7.2,9.288c3.744-4.031-3.24-17.567-29.016-16.704C191.52,88.416,183.96,102.096,176.616,101.448z
			 M71.784,60.48c0.36-10.008,9.576-30.744,18.792-37.944c11.16-8.64,22.824-16.776,39.96-7.056c4.248,2.376,4.032,3.6,4.464,9.504
			c0.36,5.688-0.144,7.775-1.584,12.384c-11.376,36.72-20.88,15.624-57.312,24.336C77.472,49.752,87.84,39.096,93.6,33.552
			c9.863-9.575,16.991-15.768,31.823-13.752c4.104,6.841,4.536,11.16-0.432,19.152c-6.624,10.656-8.28,10.008-7.271,17.28
			c5.184-1.296,6.768-6.336,9.144-11.376c14.472-30.24-6.552-33.912-19.44-28.368c-8.64,3.672-24.048,20.664-29.088,30.888
			c-1.008,2.017-2.088,4.608-3.023,6.84L71.784,60.48z M128.808,61.992c1.512-9,10.439-11.232,10.439-38.952
			c0-11.952-14.688-22.68-33.912-14.688C88.848,15.12,86.328,20.304,77.544,33.552c-8.279,12.528-7.991,26.28-15.12,37.872
			c-2.088,3.313-3.96,4.465-6.264,7.776c-1.656,2.448-2.88,5.544-4.536,8.424c-3.384,5.544-6.84,9.576-9.576,16.2
			c-8.64,0.216-15.911,0.36-16.775,9.288c-1.152,12.24,4.607,15.264,4.607,19.872c-0.071,4.968-20.231,55.08-14.615,84.96
			c1.584,8.208,6.983,8.28,15.624,9.288c20.808,2.52,47.808,1.656,66.456-5.832l33.84-16.2c8.567-4.824,22.968-13.968,29.376-20.664
			c4.536-4.68,6.912-8.64,10.8-14.184c5.328-7.776,5.472-7.633,6.624-18.217c7.056,1.297,20.231,4.393,24.624,8.208
			c-0.504,4.969-2.952,2.593-2.952,7.057c2.808,0.072,7.488-3.456,8.64-7.344c-2.951-4.32-6.048-3.601-10.296-7.057
			c3.384-2.664,9.504-3.888,14.185-5.832c10.08-4.176,27.288-16.848,31.536-28.368c3.384-9.287,0.863-24.768-4.608-30.815
			c-5.76-6.336-19.152-9.576-30.096-9.576c-13.032,0-26.496,9.36-37.009,13.392c-4.031-3.527-4.319-7.56-7.271-11.447
			C161.352,75.744,139.32,64.224,128.808,61.992z"/>
		<path fill="#FDF2F2" d="M176.616,101.448c7.344,0.648,14.904-13.032,32.4-13.608c25.775-0.863,32.76,12.673,29.016,16.704
			c-3.024-3.312-1.368-4.968-7.2-9.288c-13.824-10.008-38.16-1.512-49.392,10.152c-3.816,3.96-4.536,4.68-3.168,11.304
			c1.512,7.416,0.504,27.504,1.8,30.672c15.479,5.04,30.456-2.52,39.456-9.863c8.855-7.2,19.656-15.84,21.6-31.608
			c0.937-7.92-5.184-13.968-8.928-17.063c-9.216-7.704-30.816-6.624-42.408-0.145c-3.096,1.729-5.111,3.601-7.632,5.4
			C177.768,97.2,175.248,96.912,176.616,101.448z"/>
		<path fill="#FEF3F3" d="M71.784,60.48l3.528-6.265c0.936-2.231,2.016-4.823,3.023-6.84c5.04-10.224,20.448-27.216,29.088-30.888
			c12.889-5.544,33.912-1.872,19.44,28.368c-2.376,5.04-3.96,10.08-9.144,11.376c-1.009-7.272,0.647-6.624,7.271-17.28
			c4.968-7.992,4.536-12.312,0.432-19.152c-14.832-2.016-21.96,4.177-31.823,13.752c-5.761,5.545-16.128,16.2-17.496,28.152
			c36.432-8.712,45.936,12.384,57.312-24.336c1.44-4.608,1.944-6.696,1.584-12.384c-0.432-5.904-0.216-7.128-4.464-9.504
			c-17.136-9.721-28.8-1.584-39.96,7.056C81.36,29.736,72.144,50.472,71.784,60.48z"/>
		<path fill="#EFEFEF" d="M30.744,127.296c1.368-1.008,1.368-0.216,2.88-3.672l5.76-16.056
			C28.08,108.504,28.08,119.952,30.744,127.296z"/>
		<path fill="#FAF1F1" d="M42.552,211.536c-1.009-4.032-13.393-7.632-18.145-7.2C25.056,211.752,34.848,212.472,42.552,211.536z"/>
	</g>
</g>
</svg>
