<?xml version="1.0" encoding="utf-8"?>
<!-- Generator: Adobe Illustrator 16.0.3, SVG Export Plug-In . SVG Version: 6.00 Build 0)  -->
<svg version="1.2" baseProfile="tiny" id="Ebene_1" xmlns="http://www.w3.org/2000/svg" xmlns:xlink="http://www.w3.org/1999/xlink"
	 x="0px" y="0px" width="512px" height="315px" viewBox="0 0 512 315" overflow="scroll" xml:space="preserve">
<g>
	<path fill="#CCCCCC" d="M78.908,244.604c13.28-15.884,14.843-32.289,4.558-62.754c-6.51-19.27-17.316-34.112-9.375-46.09
		c8.463-12.759,26.431-0.391,11.458,16.665l2.994,2.083c17.968,2.083,26.82-22.524,13.41-29.555
		c-35.413-18.488-66.4,17.056-52.729,58.198c5.858,17.447,14.062,35.936,7.421,50.646c-5.729,12.63-16.795,20.051-24.217,20.312
		c-15.493,0.781-5.207-34.763,12.63-43.616c1.563-0.781,3.775-1.822,1.692-4.427c-22.004-2.474-34.893,7.682-42.314,21.873
		C-17.177,269.211,45.448,284.444,78.908,244.604z M465.594,123.26c5.078,12.499,12.76,24.868,8.202,35.804
		c-3.775,9.374-8.723,13.28-14.191,14.191c-7.682,1.303-5.599-22.784,7.552-29.945c1.172-0.651,2.864-3.776,1.302-5.599
		c-16.665-0.911-26.039,7.031-31.117,17.577c-14.712,30.857,33.331,39.32,56.896,8.984c9.374-12.108,9.765-24.086,0.781-45.83
		c-5.729-13.801-14.452-24.086-8.983-33.2c5.858-9.635,19.92-1.302,9.374,11.587l2.344,1.302
		c13.67,0.781,19.269-17.447,8.853-22.003C479.135,64.411,453.486,93.966,465.594,123.26z M291.651,90.32
		c-9.504-7.551-36.194,5.078-43.746,23.826c-9.504,23.826-23.565,58.589-37.366,73.822c-14.582,16.014-16.015,3.645-14.582-5.6
		c3.385-21.742,24.607-72.128,36.194-86.32c-4.296-6.379-32.419-5.468-51.948,24.868c-7.291,11.458-23.956,49.605-42.444,79.681
		c-4.036,6.51-9.114,1.953-5.208-13.28c4.427-17.577,17.446-65.88,34.242-103.897c44.006-8.723,90.747-14.842,126.551-14.973
		c4.817-1.302,8.072-5.599,0-5.859c-30.856-1.042-77.206,2.604-120.563,8.072c8.333-16.666,17.316-29.945,26.431-35.544
		c-9.896-6.25-29.945-3.776-41.403,13.15c-5.077,7.552-10.155,16.666-14.973,26.561c-31.768,4.947-58.979,10.546-72.78,15.753
		c-14.321,5.468-12.759,22.785-4.036,19.53c18.098-6.771,42.575-13.801,69.786-20.05c-17.316,39.059-30.856,85.149-34.111,103.897
		c-8.072,45.569,20.181,45.309,33.981,27.342c14.973-19.66,46.22-88.794,51.037-96.085c1.432-2.474,3.385-1.172,2.344,1.042
		c-34.894,69.655-31.898,96.606-3.646,90.617c12.759-2.734,34.763-24.607,40.491-35.935c1.172-2.734,3.646-2.474,3.124-1.302
		c-22.133,57.417-50.256,103.897-69.134,118.479c-17.187,13.149-29.945-15.363,30.856-56.246c8.983-6.119,4.817-14.451-5.338-11.587
		c-31.378,4.948-121.214,33.461-160.664,60.802c-2.994,2.084-5.729,3.775-5.598,8.072c0.13,2.475,4.427,1.563,6.51,0.261
		c51.037-30.597,92.83-42.575,140.743-52.6c0.65,0.261,1.432,0.391,2.083,0.13c2.213-0.521,2.083,0.651,0.65,1.563
		c-3.255,1.822-6.51,3.516-7.291,3.775c-32.288,12.629-51.818,40.492-44.918,54.684c5.859,12.238,37.497,7.812,52.47-0.261
		c36.716-19.921,63.406-58.979,81.634-112.881C266.913,146.045,286.964,91.883,291.651,90.32z M505.044,200.598
		c-59.761-7.813-188.656,2.604-245.552,17.707c-16.926,4.426-12.238,13.41-3.646,11.717c0.13,0,3.775-0.911,3.905-0.911
		c46.741-9.114,160.143-17.056,226.283-4.427C493.977,226.115,517.803,202.29,505.044,200.598z M308.316,193.566
		c16.665-8.332,41.403-59.891,57.678-88.143c1.172-2.083,3.255-0.391,2.083,1.042c-41.143,70.827-23.696,79.029-7.421,77.988
		c21.742-1.303,41.793-32.549,46.22-39.58c1.822-2.734,2.864-0.521,1.822,1.432c-1.041,3.255-4.817,8.983-8.332,16.795
		c-4.947,11.067,0.26,15.363,4.557,17.316c6.771,3.255,25.258,1.171,28.123-10.155c-18.488-0.391,25.778-87.623,30.336-92.961
		c-12.369-7.161-31.508,0.651-40.231,17.837c-18.618,36.846-34.242,66.53-44.007,67.052c-19.009,1.041,21.873-82.155,28.514-84.759
		c-4.036-5.859-29.945-3.385-44.397,19.009c-5.208,8.072-36.976,64.317-44.788,73.562c-13.801,16.405-14.842,2.344-10.937-14.062
		c1.302-5.598,3.516-12.759,6.38-20.701c9.114-20.571,18.879-27.081,24.868-33.721c40.23-44.657,63.275-80.852,54.161-95.043
		c-8.072-12.629-35.022-7.031-52.339,19.009c-31.898,47.782-61.322,113.271-65.099,143.217
		C271.861,198.645,293.604,200.857,308.316,193.566z M325.241,105.944c1.433-3.255,2.344-4.166,4.817-9.634l0,0
		c14.321-31.508,32.289-64.708,44.657-80.202c7.682-8.072,18.488,2.864-1.041,32.81c-11.458,17.707-24.478,33.981-38.669,48.303
		c0,0,0,0,0,0.13c-3.646,4.036-6.9,7.421-8.332,9.374C325.632,108.027,324.46,107.767,325.241,105.944L325.241,105.944z"/>
</g>
</svg>
